# xmcd CD database file
#
# Track frame offsets:
#	163
#	14756
#	31120
#	59568
#	75674
#	91248
#	105253
#	123253
#	139354
#	161328
#	184235
#	198419
#	214215
#	228546
#	244455
#	269326
#
# Disc length: 3773 seconds
#
# Revision: 3
# Processed by: cddbd v1.5.2PL0 Copyright (c) Steve Scherf et al.
# Submitted via: CDex 1.70beta2
#
DISCID=e10ebb10
DTITLE=AA.VV - Capitol Disco CD1
DYEAR=2007
DGENRE=Disco
TTITLE0=Minnie Riperton - Adventures In Paradise (Riperton-Rudolph-Sample) (1975)
TTITLE1=Gentle Persuation - A Little Bit Of Love (Van McCoy) (1975)
TTITLE2=Maze feat.Frankie Beverly - Southern Girl (Live) (F.Beverly) (1981)
TTITLE3=Margo Thunder - Expressway To Your Heart (Gamble-Huff) (1974)
TTITLE4=Natalie Cole - Sophisticated Lady (Shes A Different Lady) (Jackson-Yancy-Cole) (1976)
TTITLE5=Brown Sugar - I'm Going Through Changes Now (V.Montana-Walker) (1975)
TTITLE6=Gloria Jones - Windstorm (Hill-Jones) (1979)
TTITLE7=Diana Ross - Work That Body (Ross-Jabara-Crew) (1981)
TTITLE8=Donna Washinton - Save Your Love For Me (Jackson-Coleman) (1980)
TTITLE9=T-Connection - Party Night  (T.Coakley) (1981)
TTITLE10=Tapestry - Life Is What You Make It (John Davis) (1975)
TTITLE11=Evie Sands - One Thing On My Mind (Sands-Germinaro) (1974)
TTITLE12=Brown Sugar - Lay Some Lovin' On Me (R.Taylor) (1977)
TTITLE13=Barrett Strong - Surrender  (Barrett Strong-B.Always) (1975)
TTITLE14=A Taste Of Honey - Do It Good (Johnson-Kibble) (1979)
TTITLE15=Tavares - I'm Back For More (Kenneth Stover) (1978)
EXTD=Capitol Disco YEAR: 2007
EXTT0=
EXTT1=
EXTT2=
EXTT3=
EXTT4=
EXTT5=
EXTT6=
EXTT7=
EXTT8=
EXTT9=
EXTT10=
EXTT11=
EXTT12=
EXTT13=
EXTT14=
EXTT15=
PLAYORDER=
